<?xml version="1.0" encoding="utf-8"?>
<!-- Generator: Adobe Illustrator 22.0.1, SVG Export Plug-In . SVG Version: 6.00 Build 0)  -->
<svg version="1.1" id="Layer_1" xmlns="http://www.w3.org/2000/svg" xmlns:xlink="http://www.w3.org/1999/xlink" x="0px" y="0px"
	 viewBox="0 0 100 70" style="enable-background:new 0 0 100 70;" xml:space="preserve">
<style type="text/css">
	.st0{fill:#A3C33B;}
	.st1{fill:#58585B;}
	.st2{fill:#009448;}
</style>
<g>
	<path class="st0" d="M93.9,22c-1.9-1.6-3.7-3.2-5.8-4.7c-2.3-1.7-5.1-3.2-7.9-4.4c-4.9-2.1-8.9-3.2-14.4-4
		c-10-1.2-17.5-0.2-26.6,2.1c-7.9,2.2-14.1,4.7-21.3,7.6c-2.7,1.1-5.3,2.1-8.1,3.1c-2.5,0.7-12.5,2.8-1.3,2.4
		c0.1,0.4,2.5-0.2,2.7-0.3c2.2-0.7,4.2-1.9,6-3c0.6-0.4,1.2-0.7,1.8-1c6.3-3.3,13.4-6,20.7-8.1c8.9-2.3,16.2-3.2,25.9-2
		c5.3,0.8,9.2,2,13.8,4.1c1.5,0.7,2.8,1.4,4.1,2.2c3.3,2.1,6.2,4.2,9.2,6.6c0.8,0.6,3.8,3.3,3.9,2.6C96.6,24,95.1,23,93.9,22"/>
	<path class="st1" d="M93.4,22.1c-1.4-1.3-2.9-2.6-4.4-3.8c-1.8-1.4-4-2.6-6.1-3.6c-3.8-1.7-6.9-2.6-11.1-3.2
		c-7.8-0.9-13.5-0.1-20.6,1.8c-6.1,1.8-10.9,3.9-16.5,6.3c-2.1,0.9-4.1,1.8-6.3,2.6c-1.9,0.6-9.7,2.3-1,2c0.1,0.4,1.9-0.2,2.1-0.2
		c1.7-0.6,3.3-1.6,4.7-2.5c0.5-0.3,0.9-0.6,1.4-0.8c4.8-2.7,10.4-4.9,16.1-6.7c6.9-1.9,12.5-2.7,20.1-1.7c4.1,0.7,7.1,1.6,10.6,3.3
		c1.1,0.6,2.1,1.1,3.2,1.8c2.6,1.7,4.8,3.4,7.1,5.3c0.6,0.5,2.9,2.7,3,2.1C95.5,23.7,94.3,22.9,93.4,22.1"/>
	<path class="st2" d="M95.2,23.7c-1.1-1-2.2-2-3.4-3c-1.3-1.1-3-2-4.6-2.9c-2.8-1.3-5.2-2.1-8.4-2.6c-5.9-0.7-10.2-0.1-15.6,1.4
		c-4.6,1.4-8.3,3.1-12.5,5c-1.6,0.7-3.1,1.4-4.8,2c-1.5,0.5-7.3,1.8-0.8,1.6c0.1,0.3,1.4-0.1,1.6-0.2c1.3-0.5,2.5-1.3,3.5-2
		c0.3-0.2,0.7-0.4,1.1-0.7c3.7-2.2,7.8-4,12.1-5.3c5.2-1.5,9.5-2.1,15.2-1.4c3.1,0.5,5.3,1.3,8,2.6c0.9,0.5,1.6,0.9,2.4,1.5
		c1.9,1.4,3.6,2.8,5.4,4.3c0.4,0.4,2.2,2.1,2.3,1.7C96.8,25,95.9,24.3,95.2,23.7"/>
	<rect x="96.1" y="30.1" class="st1" width="2.9" height="3"/>
	<rect x="96.1" y="35" class="st1" width="2.9" height="13.5"/>
	<path class="st1" d="M83.9,42.2L83.9,42.2c-0.2-0.4-0.5-0.7-0.9-1.1c-0.4-0.3-0.9-0.6-1.5-0.8c-0.5-0.2-1.2-0.4-1.9-0.6
		c-0.8-0.2-1.5-0.4-1.9-0.6l0,0c-0.6-0.2-0.8-0.4-0.9-0.4l0,0c-0.1-0.1-0.2-0.1-0.2-0.2l0,0c0-0.1,0-0.2,0-0.2c0-0.2,0-0.3,0.1-0.4
		c0.1-0.1,0.2-0.2,0.3-0.3c0.2-0.1,0.4-0.2,0.7-0.3c0.3-0.1,0.7-0.1,1.1-0.1c0.7,0,1.4,0.1,1.7,0.3c0.1,0.1,0.2,0.2,0.3,0.3
		c0.1,0.1,0.1,0.2,0.1,0.4L81,39h2.9l-0.1-0.9c-0.1-0.6-0.2-1.2-0.5-1.7c-0.3-0.5-0.7-0.9-1.1-1.2c-0.9-0.6-2.1-0.8-3.6-0.8
		c-0.7,0-1.3,0.1-1.9,0.2c-0.6,0.2-1.1,0.4-1.6,0.7c-0.5,0.3-0.8,0.8-1.1,1.3c-0.3,0.5-0.4,1.1-0.4,1.7c0,0.7,0.1,1.2,0.3,1.7
		c0.2,0.4,0.5,0.8,0.9,1.2l0,0.1l0.1,0c0.4,0.3,0.8,0.5,1.3,0.7l0.2,0.1c0.5,0.2,1.1,0.3,1.7,0.5c0.7,0.2,1.3,0.4,1.8,0.5
		c0.5,0.2,0.8,0.3,1,0.4c0.2,0.1,0.2,0.2,0.3,0.2l0,0c0,0.1,0.1,0.2,0.1,0.4c0,0.2,0,0.4-0.1,0.5c-0.1,0.1-0.2,0.2-0.3,0.3l-0.1,0
		c-0.2,0.1-0.4,0.2-0.7,0.3l-0.4,0.1c-0.3,0-0.5,0.1-0.9,0.1c-1.1,0-1.7-0.2-2-0.4c-0.2-0.1-0.3-0.3-0.4-0.5
		c-0.1-0.2-0.2-0.4-0.2-0.6l-0.1-0.7h-2.9l0.1,0.9c0.1,0.7,0.3,1.3,0.5,1.8c0.4,0.8,1.1,1.4,2,1.8c0.8,0.4,1.8,0.6,3.1,0.6
		c0.8,0,1.5-0.1,2.1-0.3l0.3-0.1v0c0.5-0.2,1-0.5,1.4-0.8c0.5-0.4,0.8-0.9,1.1-1.5c0.3-0.6,0.4-1.2,0.4-1.8c0-0.6-0.1-1.1-0.3-1.6
		L83.9,42.2z"/>
	<rect x="59.1" y="30.1" class="st1" width="2.9" height="3"/>
	<rect x="59.1" y="35" class="st1" width="2.9" height="13.5"/>
	<rect x="43.4" y="30.1" class="st1" width="2.9" height="18.4"/>
	<rect x="25.7" y="30.1" class="st1" width="2.9" height="3"/>
	<rect x="25.7" y="35" class="st1" width="2.9" height="13.5"/>
	<polygon class="st1" points="1,33 6.8,33 6.8,48.5 9.7,48.5 9.7,33 15.6,33 15.6,30.1 1,30.1 	"/>
	<g>
		<path class="st1" d="M9.8,53.7h0.4v4H9.8V53.7z"/>
		<path class="st1" d="M11.6,57.7v-4h0.1l2.7,3.1v-3.1h0.4v4h-0.1L12,54.7v3.1H11.6z"/>
		<path class="st1" d="M15.9,57l0.3-0.2c0.2,0.4,0.5,0.7,0.8,0.7c0.1,0,0.3,0,0.4-0.1c0.1-0.1,0.2-0.1,0.3-0.3
			c0.1-0.1,0.1-0.2,0.1-0.3c0-0.1,0-0.3-0.1-0.4c-0.1-0.2-0.4-0.4-0.7-0.6c-0.3-0.3-0.5-0.4-0.6-0.6c-0.1-0.2-0.2-0.4-0.2-0.6
			c0-0.2,0-0.3,0.1-0.5c0.1-0.1,0.2-0.3,0.4-0.3c0.2-0.1,0.3-0.1,0.5-0.1c0.2,0,0.4,0,0.5,0.1c0.2,0.1,0.3,0.3,0.5,0.5l-0.3,0.3
			c-0.2-0.2-0.3-0.3-0.4-0.4C17.3,54,17.2,54,17.1,54c-0.2,0-0.3,0-0.4,0.1c-0.1,0.1-0.2,0.2-0.2,0.4c0,0.1,0,0.2,0.1,0.3
			c0,0.1,0.1,0.2,0.2,0.3c0.1,0.1,0.2,0.2,0.5,0.4c0.4,0.3,0.6,0.5,0.7,0.7c0.1,0.2,0.2,0.4,0.2,0.6c0,0.3-0.1,0.5-0.3,0.8
			c-0.2,0.2-0.5,0.3-0.8,0.3c-0.2,0-0.5-0.1-0.7-0.2C16.2,57.5,16,57.3,15.9,57z"/>
		<path class="st1" d="M19.6,53.7h0.8c0.5,0,0.8,0,0.9,0.1c0.2,0.1,0.4,0.2,0.6,0.4c0.1,0.2,0.2,0.4,0.2,0.7c0,0.3-0.1,0.5-0.2,0.7
			c-0.1,0.2-0.3,0.3-0.6,0.4c-0.2,0-0.5,0.1-1,0.1H20v1.9h-0.4V53.7z M20,54.1v1.4l0.7,0c0.3,0,0.5,0,0.6-0.1c0.1,0,0.2-0.1,0.3-0.2
			c0.1-0.1,0.1-0.2,0.1-0.4c0-0.1,0-0.3-0.1-0.4c-0.1-0.1-0.2-0.2-0.3-0.2c-0.1,0-0.3-0.1-0.6-0.1H20z"/>
		<path class="st1" d="M23.3,53.7h0.4v4h-0.4V53.7z"/>
		<path class="st1" d="M25.2,53.7H26c0.4,0,0.8,0,0.9,0.1c0.2,0.1,0.4,0.2,0.6,0.4c0.2,0.2,0.2,0.4,0.2,0.7c0,0.2-0.1,0.4-0.2,0.6
			c-0.1,0.2-0.3,0.3-0.4,0.4c-0.2,0.1-0.5,0.1-0.8,0.1l1.5,1.9h-0.5l-1.5-1.9h-0.2v1.9h-0.4V53.7z M25.6,54.1v1.4l0.7,0
			c0.3,0,0.5,0,0.6-0.1c0.1-0.1,0.2-0.1,0.3-0.2c0.1-0.1,0.1-0.2,0.1-0.4c0-0.1,0-0.3-0.1-0.4c-0.1-0.1-0.2-0.2-0.3-0.2
			c-0.1,0-0.3-0.1-0.6-0.1H25.6z"/>
		<path class="st1" d="M29,53.7h2.3v0.4h-1.9v1.3h1.9v0.4h-1.9v1.6h1.9v0.4H29V53.7z"/>
		<path class="st1" d="M35.8,53.6h0.4v5.2h-0.4V53.6z"/>
		<path class="st1" d="M40.8,53.7h0.4v4h-0.4V53.7z"/>
		<path class="st1" d="M42.7,57.7v-4h0.1l2.7,3.1v-3.1h0.4v4h-0.1l-2.7-3.1v3.1H42.7z"/>
		<path class="st1" d="M47,53.7h0.4l1.3,3.1l1.4-3.1h0.4l-1.8,4h-0.1L47,53.7z"/>
		<path class="st1" d="M51.8,53.7h2.3v0.4h-1.9v1.3h1.9v0.4h-1.9v1.6h1.9v0.4h-2.3V53.7z"/>
		<path class="st1" d="M54.8,57l0.3-0.2c0.2,0.4,0.5,0.7,0.8,0.7c0.1,0,0.3,0,0.4-0.1c0.1-0.1,0.2-0.1,0.3-0.3
			c0.1-0.1,0.1-0.2,0.1-0.3c0-0.1,0-0.3-0.1-0.4c-0.1-0.2-0.4-0.4-0.7-0.6c-0.3-0.3-0.5-0.4-0.6-0.6c-0.1-0.2-0.2-0.4-0.2-0.6
			c0-0.2,0-0.3,0.1-0.5s0.2-0.3,0.4-0.3c0.2-0.1,0.3-0.1,0.5-0.1c0.2,0,0.4,0,0.5,0.1c0.2,0.1,0.3,0.3,0.5,0.5l-0.3,0.3
			c-0.2-0.2-0.3-0.3-0.4-0.4C56.3,54,56.2,54,56.1,54c-0.2,0-0.3,0-0.4,0.1c-0.1,0.1-0.2,0.2-0.2,0.4c0,0.1,0,0.2,0.1,0.3
			c0,0.1,0.1,0.2,0.2,0.3c0.1,0.1,0.2,0.2,0.5,0.4c0.4,0.3,0.6,0.5,0.7,0.7c0.1,0.2,0.2,0.4,0.2,0.6c0,0.3-0.1,0.5-0.3,0.8
			c-0.2,0.2-0.5,0.3-0.8,0.3c-0.2,0-0.5-0.1-0.7-0.2C55.2,57.5,55,57.3,54.8,57z"/>
		<path class="st1" d="M58.1,54.1v-0.4h2.2v0.4h-0.9v3.7H59v-3.7H58.1z"/>
		<path class="st1" d="M64.7,53.6h0.4v5.2h-0.4V53.6z"/>
		<path class="st1" d="M69.7,53.7h0.4v4h-0.4V53.7z"/>
		<path class="st1" d="M71.4,57.7l0.6-4H72l1.6,3.3l1.6-3.3h0.1l0.6,4h-0.4l-0.4-2.9l-1.4,2.9h-0.1l-1.4-2.9l-0.4,2.9H71.4z"/>
		<path class="st1" d="M78.9,53.7l1.9,4h-0.4l-0.6-1.3h-1.7l-0.6,1.3h-0.5L78.9,53.7L78.9,53.7z M78.8,54.5L78.1,56h1.4L78.8,54.5z"
			/>
		<path class="st1" d="M85.8,54.4l-0.3,0.3c-0.2-0.2-0.5-0.4-0.7-0.5C84.4,54,84.2,54,83.9,54c-0.3,0-0.6,0.1-0.9,0.2
			c-0.3,0.2-0.5,0.4-0.7,0.6c-0.2,0.3-0.2,0.5-0.2,0.8c0,0.3,0.1,0.6,0.2,0.9c0.2,0.3,0.4,0.5,0.7,0.6c0.3,0.2,0.6,0.2,0.9,0.2
			c0.4,0,0.8-0.1,1.1-0.4c0.3-0.2,0.5-0.5,0.5-0.9h-1.3v-0.4H86c0,0.6-0.2,1.1-0.6,1.5s-0.9,0.6-1.5,0.6c-0.7,0-1.3-0.3-1.8-0.8
			c-0.3-0.4-0.5-0.8-0.5-1.4c0-0.4,0.1-0.7,0.3-1.1c0.2-0.3,0.5-0.6,0.8-0.8c0.3-0.2,0.7-0.3,1.1-0.3c0.3,0,0.7,0.1,1,0.2
			C85.2,53.9,85.5,54.1,85.8,54.4z"/>
		<path class="st1" d="M87.2,53.7h0.4v4h-0.4V53.7z"/>
		<path class="st1" d="M89,57.7v-4h0.1l2.7,3.1v-3.1h0.4v4h-0.1l-2.7-3.1v3.1H89z"/>
		<path class="st1" d="M93.7,53.7H96v0.4h-1.9v1.3H96v0.4h-1.9v1.6H96v0.4h-2.3V53.7z"/>
	</g>
</g>
</svg>
