<?xml version="1.0" encoding="utf-8"?>
<!-- Generator: Adobe Illustrator 27.3.1, SVG Export Plug-In . SVG Version: 6.00 Build 0)  -->
<svg version="1.1" xmlns="http://www.w3.org/2000/svg" xmlns:xlink="http://www.w3.org/1999/xlink" x="0px" y="0px" width="323px"
	 height="65.9px" viewBox="0 0 323 65.9" style="enable-background:new 0 0 323 65.9;" xml:space="preserve">
<style type="text/css">
	.st0{fill:#FFC635;}
	.st1{fill:#9F1C32;}
	.st2{fill:#595B5D;}
	.st3{fill:#221F20;}
	.st4{fill:#00A79E;}
	.st5{fill:#8BC141;}
	.st6{fill:#231F20;}
	.st7{fill:none;stroke:#231F20;stroke-width:0.722;stroke-miterlimit:10;}
	.st8{fill:#1A171D;}
	.st9{fill:#D1D3D4;}
	.st10{fill:#BE1E2D;}
	.st11{fill:#8D0E1B;}
	.st12{fill:#EB9622;}
	.st13{fill:#F3C816;}
	.st14{fill:#65696C;}
	.st15{fill:#FFFFFF;}
	.st16{fill:#7A7A7A;}
	.st17{fill:#8DC441;}
	.st18{fill:#F79050;}
	.st19{fill:#B55DA4;}
	.st20{fill:#2E88C4;}
	.st21{fill:#EF4136;}
	.st22{fill:#FCB040;}
	.st23{fill:#00A79F;}
	.st24{fill:#009444;}
	.st25{fill:#2B3990;}
	.st26{fill:#8F5700;}
	.st27{fill:#F2AA00;}
	.st28{fill:#CA0000;}
	.st29{fill:#7228A1;}
	.st30{fill:#27AAE1;}
	.st31{fill:#AD3889;}
	.st32{fill:#58595B;}
	.st33{clip-path:url(#SVGID_00000051374933074839653220000009635461672898406579_);}
	.st34{fill-rule:evenodd;clip-rule:evenodd;fill:#A19354;}
	.st35{fill:#249B01;}
	.st36{fill:#1C75BC;}
	.st37{fill:#2BB673;}
	.st38{fill:#EE2A7B;}
	.st39{fill:#F4C714;}
	.st40{fill:#BF1E2E;}
	.st41{fill:#AABE21;}
	.st42{fill:#A29457;}
	.st43{fill:#1B76BD;}
</style>
<g id="Layer_2">
	<g>
		<g>
			<polygon class="st0" points="286.6,48.3 301.2,30.7 286.7,13 297.8,0 323,30.7 323,30.7 323,30.7 323,30.8 323,30.8 297.8,61.4 
							"/>
			<polygon class="st1" points="250.9,0 225.8,30.5 247.4,30.5 261.6,13 286.8,13.1 297.8,0 			"/>
			<polygon class="st2" points="251,61.4 225.8,30.5 247.4,30.5 261.8,48.3 286.7,48.3 297.9,61.4 			"/>
			<polygon class="st2" points="276,30.7 301.2,30.7 286.9,12.9 261.6,12.9 			"/>
			<polygon class="st1" points="286.7,48.3 261.8,48.3 276.1,30.7 301.3,30.7 			"/>
			<polygon class="st0" points="286.6,48.3 301.2,30.7 286.7,13 297.8,0 323,30.7 323,30.7 323,30.7 323,30.8 323,30.8 297.8,61.4 
							"/>
			<polygon class="st1" points="250.9,0 225.8,30.5 247.4,30.5 261.6,13 286.8,13.1 297.8,0 			"/>
			<polygon class="st2" points="251,61.4 225.8,30.5 247.4,30.5 261.8,48.3 286.7,48.3 297.9,61.4 			"/>
			<polygon class="st2" points="276,30.7 301.2,30.7 286.9,12.9 261.6,12.9 			"/>
			<polygon class="st1" points="286.7,48.3 261.8,48.3 276.1,30.7 301.3,30.7 			"/>
		</g>
		<g>
			<path class="st3" d="M15.4,28c-3.1,0-5.7-1-7.7-2.9c-2-2-3-4.4-3-7.5c0-3,1-5.5,3-7.5c2-2,4.4-3,7.4-3C18,7.1,21,7.9,24,9.5
				l1.9,1V5.3L25.1,5c-3.4-1.6-6.7-2.3-9.9-2.3c-4.1,0-7.7,1.4-10.7,4.3C1.5,9.8,0,13.3,0,17.6c0,4.2,1.5,7.8,4.4,10.6
				c2.9,2.8,6.6,4.3,11,4.3c3.3,0,6.7-0.9,10-2.6l0.7-0.4v-5l-1.9,1C21.1,27.2,18.1,28,15.4,28"/>
			<polygon class="st3" points="49.4,15.3 34.1,15.3 34.1,3 29.5,3 29.5,32.1 34.1,32.1 34.1,19.5 49.4,19.5 49.4,32.1 54,32.1 
				54,3 49.4,3 			"/>
			<rect x="59.5" y="3" class="st3" width="4.6" height="29.1"/>
			<path class="st3" d="M84.7,21.8h5.6v5.1c-1.8,0.8-3.8,1.2-6,1.2c-3.5,0-6.1-1-8.1-3c-2-2-2.9-4.4-2.9-7.5c0-3,1-5.5,3-7.5
				c2-2,4.5-3,7.5-3c2.9,0,5.8,0.8,8.8,2.5l1.9,1.1V5.4L93.7,5c-3.5-1.6-6.7-2.4-9.7-2.4c-4.4,0-8.2,1.4-11.1,4.2
				c-3,2.8-4.5,6.4-4.5,10.6c0,4.3,1.5,7.9,4.6,10.7c3,2.8,6.8,4.3,11.2,4.3c3.3,0,6.7-0.8,10-2.4l0.7-0.3V17.5H84.7V21.8z"/>
			<polygon class="st3" points="127.2,22.9 119.2,3 116.8,3 108.8,22.9 100.8,3 95.9,3 107.7,32.4 110,32.4 118,12.1 126.1,32.4 
				128.3,32.4 140,3 135.2,3 			"/>
			<polygon class="st3" points="146.5,19.6 158.6,19.6 158.6,15.3 146.5,15.3 146.5,7.2 159,7.2 159,3 141.9,3 141.9,32.1 
				159.3,32.1 159.3,27.9 146.5,27.9 			"/>
			<polygon class="st3" points="167.6,3 163,3 163,32.1 180.7,32.1 180.7,27.9 167.6,27.9 			"/>
			<polygon class="st3" points="187.8,27.9 187.8,3 183.2,3 183.2,32.1 201,32.1 201,27.9 			"/>
			<path class="st3" d="M11.9,56.2l-1.3-3.8c-0.3-0.9-0.5-1.6-0.7-2.4h0c-0.2,0.8-0.4,1.6-0.7,2.4l-1.3,3.8H11.9z M7.6,57.5
				l-1.4,4.1H4.5l4.5-13.1h2l4.5,13.1h-1.8l-1.4-4.1H7.6z"/>
			<path class="st3" d="M25.1,57.8c0,0.2,0.1,0.4,0.1,0.6c0.3,1.2,1.3,2,2.6,2c1.8,0,2.9-1.5,2.9-3.6c0-1.9-1-3.5-2.8-3.5
				c-1.2,0-2.3,0.8-2.6,2.1c0,0.2-0.1,0.4-0.1,0.7V57.8z M23.4,61.6c0-0.6,0.1-1.6,0.1-2.4V47.8h1.7v5.9h0.1c0.6-1,1.7-1.7,3.2-1.7
				c2.3,0,4,1.9,4,4.8c0,3.4-2.1,5-4.2,5c-1.4,0-2.5-0.5-3.2-1.8h-0.1l-0.1,1.6H23.4z"/>
			<path class="st3" d="M41.5,56c0-1.1-0.4-2.8-2.4-2.8c-1.7,0-2.5,1.6-2.6,2.8H41.5z M36.5,57.2c0,2.3,1.5,3.3,3.2,3.3
				c1.2,0,2-0.2,2.6-0.5l0.3,1.2c-0.6,0.3-1.6,0.6-3.1,0.6c-2.9,0-4.6-1.9-4.6-4.7c0-2.8,1.7-5.1,4.4-5.1c3.1,0,3.9,2.7,3.9,4.4
				c0,0.4,0,0.6-0.1,0.8H36.5z"/>
			<path class="st3" d="M48.3,49.5v2.7h2.5v1.3h-2.5v5.1c0,1.2,0.3,1.8,1.3,1.8c0.4,0,0.8-0.1,1-0.1l0.1,1.3
				c-0.3,0.1-0.8,0.2-1.5,0.2c-0.8,0-1.4-0.3-1.9-0.7c-0.5-0.5-0.7-1.3-0.7-2.5v-5.1h-1.4v-1.3h1.4V50L48.3,49.5z"/>
			<path class="st3" d="M55.7,49.5v2.7h2.5v1.3h-2.5v5.1c0,1.2,0.3,1.8,1.3,1.8c0.4,0,0.8-0.1,1-0.1l0.1,1.3
				c-0.3,0.1-0.9,0.2-1.5,0.2c-0.8,0-1.4-0.3-1.8-0.7c-0.5-0.5-0.7-1.3-0.7-2.5v-5.1h-1.5v-1.3h1.5V50L55.7,49.5z"/>
			<path class="st3" d="M67,56c0-1.1-0.4-2.8-2.4-2.8c-1.7,0-2.5,1.6-2.6,2.8H67z M62,57.2c0,2.3,1.5,3.3,3.2,3.3
				c1.2,0,2-0.2,2.6-0.5l0.3,1.2c-0.6,0.3-1.7,0.6-3.1,0.6c-2.9,0-4.6-1.9-4.6-4.7c0-2.8,1.7-5.1,4.4-5.1c3.1,0,3.9,2.7,3.9,4.4
				c0,0.4,0,0.6-0.1,0.8H62z"/>
			<path class="st3" d="M71.7,55.2c0-1.1,0-2.1-0.1-2.9h1.5l0.1,1.9h0.1c0.4-1.3,1.4-2.1,2.6-2.1c0.2,0,0.3,0,0.5,0.1v1.6
				c-0.2,0-0.4-0.1-0.6-0.1c-1.2,0-2.1,0.9-2.3,2.2c0,0.2-0.1,0.5-0.1,0.8v5h-1.7V55.2z"/>
			<path class="st3" d="M90.6,56c0-0.2,0-0.5-0.1-0.7c-0.3-1.1-1.2-1.9-2.5-1.9c-1.8,0-2.8,1.5-2.8,3.6c0,1.9,0.9,3.5,2.8,3.5
				c1.1,0,2.1-0.7,2.5-1.9c0.1-0.2,0.1-0.6,0.1-0.8V56z M90.6,60.2L90.6,60.2c-0.5,0.9-1.6,1.7-3.1,1.7c-2.2,0-4-1.9-4-4.8
				c0-3.5,2.3-5.1,4.3-5.1c1.5,0,2.4,0.7,2.9,1.6h0l0-1.4h1.6c0,0.8,0,1.6,0,2.6v10.7h-1.7V60.2z"/>
			<path class="st3" d="M104,59.1c0,1,0,1.8,0.1,2.6h-1.5l-0.1-1.5h0c-0.5,0.8-1.4,1.7-3.1,1.7c-1.5,0-3.3-0.8-3.3-4.1v-5.5h1.7v5.2
				c0,1.8,0.6,3,2.1,3c1.2,0,2-0.8,2.3-1.6c0.1-0.3,0.2-0.6,0.2-0.9v-5.8h1.7V59.1z"/>
			<path class="st3" d="M112.8,56.8c-1.9,0-4,0.3-4,2.1c0,1.1,0.8,1.6,1.6,1.6c1.2,0,2-0.8,2.3-1.6c0.1-0.2,0.1-0.4,0.1-0.5V56.8z
				 M113.1,61.6l-0.1-1.2h-0.1c-0.5,0.7-1.5,1.4-2.9,1.4c-1.9,0-2.9-1.3-2.9-2.7c0-2.3,2-3.5,5.7-3.5v-0.2c0-0.8-0.2-2.2-2.2-2.2
				c-0.9,0-1.8,0.3-2.4,0.7l-0.4-1.1c0.8-0.5,1.9-0.8,3.1-0.8c2.9,0,3.6,2,3.6,3.9v3.5c0,0.8,0,1.6,0.1,2.3H113.1z"/>
			<rect x="118.2" y="47.8" class="st3" width="1.7" height="13.8"/>
			<path class="st3" d="M123.8,52.2h1.7v9.4h-1.7V52.2z M125.7,49.6c0,0.6-0.4,1.1-1.1,1.1c-0.6,0-1-0.5-1-1.1
				c0-0.6,0.4-1.1,1.1-1.1C125.3,48.5,125.7,49,125.7,49.6"/>
			<path class="st3" d="M131.4,49.5v2.7h2.5v1.3h-2.5v5.1c0,1.2,0.3,1.8,1.3,1.8c0.5,0,0.8-0.1,1-0.1l0.1,1.3
				c-0.3,0.1-0.9,0.2-1.5,0.2c-0.8,0-1.4-0.3-1.9-0.7c-0.5-0.5-0.7-1.3-0.7-2.5v-5.1h-1.5v-1.3h1.5V50L131.4,49.5z"/>
			<path class="st3" d="M137.6,52.2l2.1,5.6c0.2,0.6,0.5,1.4,0.6,1.9h0c0.2-0.6,0.4-1.3,0.6-2l1.9-5.5h1.8l-2.6,6.7
				c-1.2,3.2-2.1,4.9-3.2,5.9c-0.8,0.7-1.7,1-2.1,1.1l-0.4-1.4c0.4-0.1,1-0.4,1.5-0.8c0.5-0.4,1.1-1,1.4-1.9
				c0.1-0.2,0.1-0.3,0.1-0.4c0-0.1,0-0.2-0.1-0.4l-3.5-8.7H137.6z"/>
			<path class="st3" d="M153.3,56.9c0,2.1,1.2,3.6,2.9,3.6c1.6,0,2.9-1.5,2.9-3.7c0-1.6-0.8-3.6-2.8-3.6
				C154.2,53.3,153.3,55.1,153.3,56.9 M160.8,56.8c0,3.5-2.4,5-4.7,5c-2.6,0-4.5-1.9-4.5-4.8c0-3.2,2.1-5,4.7-5
				C158.9,52,160.8,54,160.8,56.8"/>
			<path class="st3" d="M164.1,61.6v-8.1h-1.3v-1.3h1.3v-0.4c0-1.3,0.3-2.5,1.1-3.3c0.6-0.6,1.5-0.9,2.3-0.9c0.6,0,1.1,0.1,1.5,0.3
				l-0.2,1.3c-0.3-0.1-0.6-0.2-1.1-0.2c-1.5,0-1.8,1.3-1.8,2.7v0.5h2.3v1.3h-2.3v8.1H164.1z"/>
			<rect x="175.7" y="47.8" class="st3" width="1.7" height="13.8"/>
			<path class="st3" d="M181.3,52.2h1.7v9.4h-1.7V52.2z M183.2,49.6c0,0.6-0.4,1.1-1.1,1.1c-0.6,0-1-0.5-1-1.1
				c0-0.6,0.4-1.1,1.1-1.1C182.8,48.5,183.2,49,183.2,49.6"/>
			<path class="st3" d="M187,61.6v-8.1h-1.3v-1.3h1.3v-0.4c0-1.3,0.3-2.5,1.1-3.3c0.7-0.6,1.5-0.9,2.3-0.9c0.6,0,1.1,0.1,1.5,0.3
				l-0.2,1.3c-0.3-0.1-0.6-0.2-1.1-0.2c-1.5,0-1.8,1.3-1.8,2.7v0.5h2.3v1.3h-2.3v8.1H187z"/>
			<path class="st3" d="M199.2,56c0-1.1-0.5-2.8-2.4-2.8c-1.8,0-2.5,1.6-2.6,2.8H199.2z M194.2,57.2c0,2.3,1.5,3.3,3.3,3.3
				c1.2,0,2-0.2,2.6-0.5l0.3,1.2c-0.6,0.3-1.6,0.6-3.1,0.6c-2.9,0-4.6-1.9-4.6-4.7c0-2.8,1.7-5.1,4.4-5.1c3.1,0,3.9,2.7,3.9,4.4
				c0,0.4,0,0.6-0.1,0.8H194.2z"/>
			<path class="st3" d="M11.9,56.2l-1.3-3.8c-0.3-0.9-0.5-1.6-0.7-2.4h0c-0.2,0.8-0.4,1.6-0.7,2.4l-1.3,3.8H11.9z M7.6,57.5
				l-1.4,4.1H4.5l4.5-13.1h2l4.5,13.1h-1.8l-1.4-4.1H7.6z"/>
			<path class="st3" d="M25.1,57.8c0,0.2,0.1,0.4,0.1,0.6c0.3,1.2,1.3,2,2.6,2c1.8,0,2.9-1.5,2.9-3.6c0-1.9-1-3.5-2.8-3.5
				c-1.2,0-2.3,0.8-2.6,2.1c0,0.2-0.1,0.4-0.1,0.7V57.8z M23.4,61.6c0-0.6,0.1-1.6,0.1-2.4V47.8h1.7v5.9h0.1c0.6-1,1.7-1.7,3.2-1.7
				c2.3,0,4,1.9,4,4.8c0,3.4-2.1,5-4.2,5c-1.4,0-2.5-0.5-3.2-1.8h-0.1l-0.1,1.6H23.4z"/>
			<path class="st3" d="M41.5,56c0-1.1-0.4-2.8-2.4-2.8c-1.7,0-2.5,1.6-2.6,2.8H41.5z M36.5,57.2c0,2.3,1.5,3.3,3.2,3.3
				c1.2,0,2-0.2,2.6-0.5l0.3,1.2c-0.6,0.3-1.6,0.6-3.1,0.6c-2.9,0-4.6-1.9-4.6-4.7c0-2.8,1.7-5.1,4.4-5.1c3.1,0,3.9,2.7,3.9,4.4
				c0,0.4,0,0.6-0.1,0.8H36.5z"/>
			<path class="st3" d="M48.3,49.5v2.7h2.5v1.3h-2.5v5.1c0,1.2,0.3,1.8,1.3,1.8c0.4,0,0.8-0.1,1-0.1l0.1,1.3
				c-0.3,0.1-0.8,0.2-1.5,0.2c-0.8,0-1.4-0.3-1.9-0.7c-0.5-0.5-0.7-1.3-0.7-2.5v-5.1h-1.4v-1.3h1.4V50L48.3,49.5z"/>
			<path class="st3" d="M55.7,49.5v2.7h2.5v1.3h-2.5v5.1c0,1.2,0.3,1.8,1.3,1.8c0.4,0,0.8-0.1,1-0.1l0.1,1.3
				c-0.3,0.1-0.9,0.2-1.5,0.2c-0.8,0-1.4-0.3-1.8-0.7c-0.5-0.5-0.7-1.3-0.7-2.5v-5.1h-1.5v-1.3h1.5V50L55.7,49.5z"/>
			<path class="st3" d="M67,56c0-1.1-0.4-2.8-2.4-2.8c-1.7,0-2.5,1.6-2.6,2.8H67z M62,57.2c0,2.3,1.5,3.3,3.2,3.3
				c1.2,0,2-0.2,2.6-0.5l0.3,1.2c-0.6,0.3-1.7,0.6-3.1,0.6c-2.9,0-4.6-1.9-4.6-4.7c0-2.8,1.7-5.1,4.4-5.1c3.1,0,3.9,2.7,3.9,4.4
				c0,0.4,0,0.6-0.1,0.8H62z"/>
			<path class="st3" d="M71.7,55.2c0-1.1,0-2.1-0.1-2.9h1.5l0.1,1.9h0.1c0.4-1.3,1.4-2.1,2.6-2.1c0.2,0,0.3,0,0.5,0.1v1.6
				c-0.2,0-0.4-0.1-0.6-0.1c-1.2,0-2.1,0.9-2.3,2.2c0,0.2-0.1,0.5-0.1,0.8v5h-1.7V55.2z"/>
			<path class="st3" d="M90.6,56c0-0.2,0-0.5-0.1-0.7c-0.3-1.1-1.2-1.9-2.5-1.9c-1.8,0-2.8,1.5-2.8,3.6c0,1.9,0.9,3.5,2.8,3.5
				c1.1,0,2.1-0.7,2.5-1.9c0.1-0.2,0.1-0.6,0.1-0.8V56z M90.6,60.2L90.6,60.2c-0.5,0.9-1.6,1.7-3.1,1.7c-2.2,0-4-1.9-4-4.8
				c0-3.5,2.3-5.1,4.3-5.1c1.5,0,2.4,0.7,2.9,1.6h0l0-1.4h1.6c0,0.8,0,1.6,0,2.6v10.7h-1.7V60.2z"/>
			<path class="st3" d="M104,59.1c0,1,0,1.8,0.1,2.6h-1.5l-0.1-1.5h0c-0.5,0.8-1.4,1.7-3.1,1.7c-1.5,0-3.3-0.8-3.3-4.1v-5.5h1.7v5.2
				c0,1.8,0.6,3,2.1,3c1.2,0,2-0.8,2.3-1.6c0.1-0.3,0.2-0.6,0.2-0.9v-5.8h1.7V59.1z"/>
			<path class="st3" d="M112.8,56.8c-1.9,0-4,0.3-4,2.1c0,1.1,0.8,1.6,1.6,1.6c1.2,0,2-0.8,2.3-1.6c0.1-0.2,0.1-0.4,0.1-0.5V56.8z
				 M113.1,61.6l-0.1-1.2h-0.1c-0.5,0.7-1.5,1.4-2.9,1.4c-1.9,0-2.9-1.3-2.9-2.7c0-2.3,2-3.5,5.7-3.5v-0.2c0-0.8-0.2-2.2-2.2-2.2
				c-0.9,0-1.8,0.3-2.4,0.7l-0.4-1.1c0.8-0.5,1.9-0.8,3.1-0.8c2.9,0,3.6,2,3.6,3.9v3.5c0,0.8,0,1.6,0.1,2.3H113.1z"/>
			<rect x="118.2" y="47.8" class="st3" width="1.7" height="13.8"/>
			<path class="st3" d="M123.8,52.2h1.7v9.4h-1.7V52.2z M125.7,49.6c0,0.6-0.4,1.1-1.1,1.1c-0.6,0-1-0.5-1-1.1
				c0-0.6,0.4-1.1,1.1-1.1C125.3,48.5,125.7,49,125.7,49.6"/>
			<path class="st3" d="M131.4,49.5v2.7h2.5v1.3h-2.5v5.1c0,1.2,0.3,1.8,1.3,1.8c0.5,0,0.8-0.1,1-0.1l0.1,1.3
				c-0.3,0.1-0.9,0.2-1.5,0.2c-0.8,0-1.4-0.3-1.9-0.7c-0.5-0.5-0.7-1.3-0.7-2.5v-5.1h-1.5v-1.3h1.5V50L131.4,49.5z"/>
			<path class="st3" d="M137.6,52.2l2.1,5.6c0.2,0.6,0.5,1.4,0.6,1.9h0c0.2-0.6,0.4-1.3,0.6-2l1.9-5.5h1.8l-2.6,6.7
				c-1.2,3.2-2.1,4.9-3.2,5.9c-0.8,0.7-1.7,1-2.1,1.1l-0.4-1.4c0.4-0.1,1-0.4,1.5-0.8c0.5-0.4,1.1-1,1.4-1.9
				c0.1-0.2,0.1-0.3,0.1-0.4c0-0.1,0-0.2-0.1-0.4l-3.5-8.7H137.6z"/>
			<path class="st3" d="M153.3,56.9c0,2.1,1.2,3.6,2.9,3.6c1.6,0,2.9-1.5,2.9-3.7c0-1.6-0.8-3.6-2.8-3.6
				C154.2,53.3,153.3,55.1,153.3,56.9 M160.8,56.8c0,3.5-2.4,5-4.7,5c-2.6,0-4.5-1.9-4.5-4.8c0-3.2,2.1-5,4.7-5
				C158.9,52,160.8,54,160.8,56.8"/>
			<path class="st3" d="M164.1,61.6v-8.1h-1.3v-1.3h1.3v-0.4c0-1.3,0.3-2.5,1.1-3.3c0.6-0.6,1.5-0.9,2.3-0.9c0.6,0,1.1,0.1,1.5,0.3
				l-0.2,1.3c-0.3-0.1-0.6-0.2-1.1-0.2c-1.5,0-1.8,1.3-1.8,2.7v0.5h2.3v1.3h-2.3v8.1H164.1z"/>
			<rect x="175.7" y="47.8" class="st3" width="1.7" height="13.8"/>
			<path class="st3" d="M181.3,52.2h1.7v9.4h-1.7V52.2z M183.2,49.6c0,0.6-0.4,1.1-1.1,1.1c-0.6,0-1-0.5-1-1.1
				c0-0.6,0.4-1.1,1.1-1.1C182.8,48.5,183.2,49,183.2,49.6"/>
			<path class="st3" d="M187,61.6v-8.1h-1.3v-1.3h1.3v-0.4c0-1.3,0.3-2.5,1.1-3.3c0.7-0.6,1.5-0.9,2.3-0.9c0.6,0,1.1,0.1,1.5,0.3
				l-0.2,1.3c-0.3-0.1-0.6-0.2-1.1-0.2c-1.5,0-1.8,1.3-1.8,2.7v0.5h2.3v1.3h-2.3v8.1H187z"/>
			<path class="st3" d="M199.2,56c0-1.1-0.5-2.8-2.4-2.8c-1.8,0-2.5,1.6-2.6,2.8H199.2z M194.2,57.2c0,2.3,1.5,3.3,3.3,3.3
				c1.2,0,2-0.2,2.6-0.5l0.3,1.2c-0.6,0.3-1.6,0.6-3.1,0.6c-2.9,0-4.6-1.9-4.6-4.7c0-2.8,1.7-5.1,4.4-5.1c3.1,0,3.9,2.7,3.9,4.4
				c0,0.4,0,0.6-0.1,0.8H194.2z"/>
		</g>
	</g>
</g>
<g id="Layer_4">
</g>
</svg>
